<?xml version="1.0" encoding="UTF-8"?>
<svg id="_Слой_1" data-name="Слой 1" xmlns="http://www.w3.org/2000/svg" viewBox="0 0 84.6 64.14">
  <defs>
    <style>
      .cls-1 {
        stroke-width: 0px;
      }
    </style>
  </defs>
  <path class="cls-1" d="m43.39,1h1.08l.29,17.67h-.97c-.66-2.13-1.28-3.82-1.85-5.08-.57-1.26-1.19-2.37-1.88-3.33-1.91-2.79-4.33-5-7.25-6.62-2.92-1.62-5.92-2.43-9.01-2.43-1.6,0-3.19.29-4.78.88s-2.86,1.37-3.84,2.34c-1.62,1.62-2.8,3.86-3.53,6.71-.73,2.85-1.1,6.53-1.1,11.04,0,1.35.06,2.69.18,4.01.12,1.33.27,2.5.47,3.53.19,1.03.44,2.03.73,3.02.29.99.62,1.79.97,2.42.6,1.02,1.29,1.9,2.07,2.67.77.76,1.68,1.43,2.72,1.99,1.04.57,2.15.98,3.33,1.25s2.4.4,3.69.4c1.66,0,3.32-.21,4.98-.63,1.66-.42,3-.97,4.01-1.66,1.93-1.33,2.9-3.11,2.9-5.33v-2.11c0-4.96-2.48-7.44-7.44-7.44h-3.54v-1.08h28.01v1.08h-.94c-2.52,0-4.39.61-5.61,1.83s-1.83,3.09-1.83,5.61v9.61h-1.08c-.88-.82-1.65-1.37-2.3-1.64-.65-.27-1.47-.41-2.45-.41-.86,0-1.66.08-2.39.25-.73.17-1.75.52-3.06,1.07-2.13.76-3.82,1.27-5.07,1.54-1.25.26-2.78.4-4.6.4-3.44,0-6.65-.52-9.62-1.55-2.98-1.04-5.57-2.5-7.76-4.41s-3.9-4.15-5.11-6.72c-1.21-2.58-1.82-5.35-1.82-8.32,0-1.8.23-3.57.7-5.32.47-1.75,1.14-3.37,2.02-4.88.88-1.5,1.97-2.93,3.28-4.28,1.52-1.5,3.2-2.77,5.02-3.81,1.83-1.04,3.76-1.84,5.8-2.4,2.04-.57,4.08-.85,6.11-.85s4.02.26,5.96.78c1.94.52,4.08,1.35,6.4,2.5,1.74.88,2.96,1.32,3.66,1.32s1.43-.28,2.12-.85c.69-.57,1.46-1.48,2.3-2.75Z"/>
  <path class="cls-1" d="m77.81,26.13c1.23-1.22,3.1-1.83,5.6-1.83h1.2v-1.08h-25.58v1.08h.85c2.54,0,4.41.61,5.62,1.82,1.21,1.21,1.82,3.09,1.82,5.62v10.99h-22.03v-10.99c0-2.52.61-4.39,1.83-5.61s3.09-1.83,5.61-1.83h.91v-1.08h-25.81v.96s0,0,0,0c.17,0,.34.03.51.04.01,0,.02,0,.03,0,.15-.05.31-.08.49-.08.23,0,.42.05.6.13.07-.01.14-.02.22-.02.09-.06.19-.11.29-.15.19-.1.39-.14.6-.14.02,0,.04,0,.05,0,.16,0,.32.04.47.06.04,0,.08.01.11.03.04.01.08.03.11.04,0,0,.02,0,.03.01.03,0,.06,0,.09-.01,0,0,0,0,.01,0,0,0,.01,0,.02,0,0,0,.01,0,.02,0,0,0,0,0,0,0,.14.02.28.04.42.06,0,0,0,0,0,0,.01,0,.03,0,.04,0,.05.01.11.03.16.04.14.04.27.09.39.16.02.02.04.03.07.05.27.03.5.12.69.25.62.13,1,.58,1.12,1.12.03.03.08.05.11.08.64.51,1.12,1.13,1.44,1.86.31.73.56,1.72.73,2.97v24.87c0,2.52-.61,4.39-1.83,5.61s-3.09,1.83-5.61,1.83h-1.32v1.14h25.72v-1.14h-.91c-2.46,0-4.32-.62-5.57-1.85-1.25-1.23-1.88-3.1-1.88-5.6v-11.63h22.03v11.63c0,2.52-.61,4.39-1.83,5.61s-3.09,1.83-5.61,1.83h-.85v1.14h25.58v-1.14h-1.2c-2.46,0-4.32-.62-5.57-1.85-1.25-1.23-1.88-3.1-1.88-5.6v-23.82c0-2.52.62-4.39,1.85-5.61Z"/>
  <path class="cls-1" d="m34.81,40.27s1.88-.73,1.88,1.88.8-3.38.8-3.38"/>
</svg>